<svg xmlns="http://www.w3.org/2000/svg" xmlns:xlink="http://www.w3.org/1999/xlink" width="150" zoomAndPan="magnify" viewBox="0 0 112.5 37.5" height="50" preserveAspectRatio="xMidYMid meet" version="1.0"><defs><g/><clipPath id="id1"><path d="M 0.492188 0 L 111.511719 0 L 111.511719 37.007812 L 0.492188 37.007812 Z M 0.492188 0 " clip-rule="nonzero"/></clipPath><clipPath id="id2"><path d="M 5 3.71875 L 33 3.71875 L 33 33.453125 L 5 33.453125 Z M 5 3.71875 " clip-rule="nonzero"/></clipPath></defs><g clip-path="url(#id1)"><path fill="#ffffff" d="M 0.492188 0 L 112.007812 0 L 112.007812 43.863281 L 0.492188 43.863281 Z M 0.492188 0 " fill-opacity="1" fill-rule="nonzero"/><path fill="#ffffff" d="M 0.492188 0 L 112.007812 0 L 112.007812 37.171875 L 0.492188 37.171875 Z M 0.492188 0 " fill-opacity="1" fill-rule="nonzero"/><path fill="#ffffff" d="M 0.492188 0 L 112.007812 0 L 112.007812 37.171875 L 0.492188 37.171875 Z M 0.492188 0 " fill-opacity="1" fill-rule="nonzero"/></g><path fill="#e10098" d="M 8.253906 26.378906 L 7.164062 25.75 L 19.324219 4.6875 L 20.414062 5.320312 Z M 8.253906 26.378906 " fill-opacity="1" fill-rule="nonzero"/><path fill="#e10098" d="M 6.914062 24.066406 L 31.238281 24.066406 L 31.238281 25.328125 L 6.914062 25.328125 Z M 6.914062 24.066406 " fill-opacity="1" fill-rule="nonzero"/><path fill="#e10098" d="M 19.5625 31.800781 L 7.394531 24.777344 L 8.027344 23.6875 L 20.191406 30.710938 Z M 30.128906 13.492188 L 17.964844 6.46875 L 18.59375 5.378906 L 30.757812 12.402344 Z M 30.128906 13.492188 " fill-opacity="1" fill-rule="nonzero"/><path fill="#e10098" d="M 8.027344 13.488281 L 7.398438 12.398438 L 19.574219 5.371094 L 20.207031 6.460938 Z M 8.027344 13.488281 " fill-opacity="1" fill-rule="nonzero"/><path fill="#e10098" d="M 29.90625 26.378906 L 17.742188 5.316406 L 18.832031 4.6875 L 30.996094 25.75 Z M 7.878906 11.5625 L 9.140625 11.5625 L 9.140625 25.609375 L 7.878906 25.609375 Z M 29.019531 11.5625 L 30.28125 11.5625 L 30.28125 25.609375 L 29.019531 25.609375 Z M 29.019531 11.5625 " fill-opacity="1" fill-rule="nonzero"/><path fill="#e10098" d="M 19.347656 31.265625 L 18.796875 30.3125 L 29.378906 24.203125 L 29.929688 25.15625 Z M 19.347656 31.265625 " fill-opacity="1" fill-rule="nonzero"/><g clip-path="url(#id2)"><path fill="#e10098" d="M 31.949219 26.019531 C 31.773438 26.324219 31.546875 26.582031 31.269531 26.796875 C 30.988281 27.011719 30.679688 27.164062 30.339844 27.253906 C 30 27.34375 29.65625 27.367188 29.308594 27.324219 C 28.960938 27.277344 28.632812 27.167969 28.328125 26.992188 C 28.023438 26.816406 27.765625 26.589844 27.550781 26.308594 C 27.335938 26.03125 27.183594 25.722656 27.09375 25.382812 C 27.003906 25.042969 26.980469 24.699219 27.027344 24.351562 C 27.070312 24 27.179688 23.675781 27.355469 23.371094 C 27.53125 23.066406 27.761719 22.808594 28.039062 22.59375 C 28.316406 22.378906 28.625 22.226562 28.964844 22.136719 C 29.304688 22.042969 29.648438 22.023438 30 22.066406 C 30.347656 22.113281 30.671875 22.222656 30.976562 22.398438 C 32.253906 23.132812 32.6875 24.753906 31.949219 26.019531 M 10.792969 13.800781 C 10.617188 14.105469 10.390625 14.363281 10.113281 14.578125 C 9.832031 14.792969 9.523438 14.945312 9.183594 15.035156 C 8.84375 15.128906 8.5 15.148438 8.152344 15.105469 C 7.804688 15.058594 7.476562 14.949219 7.171875 14.773438 C 6.867188 14.597656 6.609375 14.371094 6.394531 14.089844 C 6.179688 13.8125 6.027344 13.503906 5.9375 13.164062 C 5.847656 12.824219 5.824219 12.480469 5.871094 12.132812 C 5.914062 11.78125 6.023438 11.457031 6.199219 11.152344 C 6.375 10.847656 6.605469 10.589844 6.882812 10.375 C 7.160156 10.160156 7.472656 10.007812 7.808594 9.917969 C 8.148438 9.824219 8.492188 9.804688 8.84375 9.847656 C 9.191406 9.894531 9.519531 10.003906 9.824219 10.179688 C 10.125 10.355469 10.386719 10.582031 10.597656 10.863281 C 10.8125 11.140625 10.964844 11.449219 11.058594 11.789062 C 11.148438 12.128906 11.171875 12.472656 11.125 12.820312 C 11.078125 13.167969 10.96875 13.496094 10.792969 13.800781 M 6.207031 26.019531 C 6.035156 25.714844 5.921875 25.386719 5.878906 25.039062 C 5.832031 24.691406 5.855469 24.347656 5.945312 24.007812 C 6.039062 23.667969 6.191406 23.359375 6.402344 23.082031 C 6.617188 22.800781 6.875 22.574219 7.179688 22.398438 C 7.484375 22.222656 7.8125 22.113281 8.160156 22.066406 C 8.507812 22.023438 8.851562 22.042969 9.191406 22.136719 C 9.53125 22.226562 9.839844 22.378906 10.121094 22.59375 C 10.398438 22.808594 10.625 23.066406 10.800781 23.371094 C 10.976562 23.675781 11.089844 24 11.132812 24.351562 C 11.179688 24.699219 11.15625 25.042969 11.066406 25.382812 C 10.972656 25.722656 10.820312 26.03125 10.605469 26.308594 C 10.394531 26.589844 10.132812 26.816406 9.832031 26.992188 C 8.554688 27.71875 6.9375 27.289062 6.207031 26.019531 M 27.363281 13.804688 C 27.1875 13.5 27.078125 13.171875 27.035156 12.824219 C 26.988281 12.472656 27.011719 12.128906 27.101562 11.789062 C 27.191406 11.453125 27.34375 11.140625 27.558594 10.863281 C 27.773438 10.585938 28.03125 10.355469 28.335938 10.179688 C 28.640625 10.007812 28.96875 9.894531 29.316406 9.851562 C 29.664062 9.804688 30.007812 9.828125 30.347656 9.917969 C 30.6875 10.011719 30.996094 10.164062 31.277344 10.375 C 31.554688 10.589844 31.78125 10.847656 31.957031 11.152344 C 32.132812 11.457031 32.242188 11.785156 32.289062 12.132812 C 32.335938 12.480469 32.3125 12.824219 32.21875 13.164062 C 32.128906 13.503906 31.976562 13.8125 31.761719 14.09375 C 31.550781 14.371094 31.289062 14.597656 30.984375 14.773438 C 30.679688 14.949219 30.355469 15.058594 30.007812 15.105469 C 29.65625 15.152344 29.3125 15.128906 28.972656 15.039062 C 28.636719 14.945312 28.324219 14.792969 28.046875 14.578125 C 27.769531 14.367188 27.539062 14.105469 27.363281 13.804688 M 19.078125 33.453125 C 18.726562 33.453125 18.390625 33.386719 18.066406 33.253906 C 17.742188 33.117188 17.453125 32.925781 17.207031 32.679688 C 16.957031 32.429688 16.765625 32.140625 16.628906 31.816406 C 16.496094 31.492188 16.429688 31.15625 16.429688 30.804688 C 16.429688 30.453125 16.496094 30.113281 16.628906 29.789062 C 16.765625 29.464844 16.957031 29.175781 17.207031 28.929688 C 17.453125 28.679688 17.742188 28.488281 18.066406 28.355469 C 18.390625 28.21875 18.730469 28.152344 19.082031 28.152344 C 19.429688 28.152344 19.769531 28.21875 20.09375 28.355469 C 20.417969 28.488281 20.707031 28.679688 20.953125 28.929688 C 21.203125 29.179688 21.394531 29.464844 21.527344 29.789062 C 21.664062 30.113281 21.730469 30.453125 21.730469 30.804688 C 21.730469 31.15625 21.660156 31.492188 21.527344 31.816406 C 21.390625 32.140625 21.199219 32.429688 20.953125 32.675781 C 20.703125 32.925781 20.417969 33.117188 20.09375 33.25 C 19.769531 33.386719 19.429688 33.453125 19.078125 33.453125 M 19.078125 9.019531 C 18.726562 9.019531 18.390625 8.953125 18.066406 8.816406 C 17.738281 8.683594 17.453125 8.492188 17.203125 8.242188 C 16.957031 7.996094 16.765625 7.707031 16.628906 7.382812 C 16.496094 7.058594 16.429688 6.71875 16.429688 6.367188 C 16.429688 6.015625 16.496094 5.679688 16.628906 5.355469 C 16.765625 5.027344 16.957031 4.742188 17.207031 4.492188 C 17.453125 4.246094 17.738281 4.054688 18.066406 3.917969 C 18.390625 3.785156 18.726562 3.71875 19.078125 3.71875 C 19.429688 3.71875 19.769531 3.785156 20.09375 3.917969 C 20.417969 4.054688 20.703125 4.246094 20.953125 4.492188 C 21.203125 4.742188 21.394531 5.027344 21.527344 5.355469 C 21.660156 5.679688 21.730469 6.015625 21.730469 6.367188 C 21.730469 6.71875 21.664062 7.058594 21.527344 7.382812 C 21.394531 7.707031 21.203125 7.992188 20.953125 8.242188 C 20.707031 8.492188 20.417969 8.683594 20.09375 8.816406 C 19.769531 8.949219 19.429688 9.019531 19.078125 9.015625 " fill-opacity="1" fill-rule="nonzero"/></g><g fill="#e10098" fill-opacity="1"><g transform="translate(39.317133, 25.805456)"><g><path d="M 6.734375 -6.125 L 10.71875 -6.125 L 10.71875 -0.4375 C 10.09375 -0.238281 9.460938 -0.09375 8.828125 0 C 8.191406 0.101562 7.453125 0.15625 6.609375 0.15625 C 4.835938 0.15625 3.457031 -0.367188 2.46875 -1.421875 C 1.488281 -2.472656 1 -3.945312 1 -5.84375 C 1 -7.050781 1.238281 -8.113281 1.71875 -9.03125 C 2.207031 -9.945312 2.910156 -10.644531 3.828125 -11.125 C 4.742188 -11.601562 5.816406 -11.84375 7.046875 -11.84375 C 8.296875 -11.84375 9.457031 -11.613281 10.53125 -11.15625 L 10.015625 -9.96875 C 8.953125 -10.40625 7.9375 -10.625 6.96875 -10.625 C 5.539062 -10.625 4.425781 -10.203125 3.625 -9.359375 C 2.832031 -8.515625 2.4375 -7.34375 2.4375 -5.84375 C 2.4375 -4.257812 2.820312 -3.0625 3.59375 -2.25 C 4.363281 -1.4375 5.492188 -1.03125 6.984375 -1.03125 C 7.796875 -1.03125 8.585938 -1.125 9.359375 -1.3125 L 9.359375 -4.90625 L 6.734375 -4.90625 Z M 6.734375 -6.125 "/></g></g><g transform="translate(51.224211, 25.805456)"><g><path d="M 5.40625 -8.921875 C 5.789062 -8.921875 6.140625 -8.882812 6.453125 -8.8125 L 6.265625 -7.59375 C 5.898438 -7.664062 5.578125 -7.703125 5.296875 -7.703125 C 4.585938 -7.703125 3.984375 -7.414062 3.484375 -6.84375 C 2.984375 -6.269531 2.734375 -5.554688 2.734375 -4.703125 L 2.734375 0 L 1.40625 0 L 1.40625 -8.75 L 2.5 -8.75 L 2.65625 -7.140625 L 2.71875 -7.140625 C 3.039062 -7.703125 3.429688 -8.140625 3.890625 -8.453125 C 4.347656 -8.765625 4.851562 -8.921875 5.40625 -8.921875 Z M 5.40625 -8.921875 "/></g></g><g transform="translate(57.90048, 25.805456)"><g><path d="M 6.796875 0 L 6.53125 -1.25 L 6.46875 -1.25 C 6.03125 -0.695312 5.59375 -0.320312 5.15625 -0.125 C 4.71875 0.0625 4.175781 0.15625 3.53125 0.15625 C 2.664062 0.15625 1.984375 -0.0664062 1.484375 -0.515625 C 0.992188 -0.960938 0.75 -1.597656 0.75 -2.421875 C 0.75 -4.191406 2.164062 -5.117188 5 -5.203125 L 6.484375 -5.25 L 6.484375 -5.796875 C 6.484375 -6.484375 6.332031 -6.988281 6.03125 -7.3125 C 5.738281 -7.632812 5.265625 -7.796875 4.609375 -7.796875 C 3.878906 -7.796875 3.054688 -7.578125 2.140625 -7.140625 L 1.734375 -8.140625 C 2.160156 -8.378906 2.628906 -8.566406 3.140625 -8.703125 C 3.660156 -8.835938 4.179688 -8.90625 4.703125 -8.90625 C 5.742188 -8.90625 6.515625 -8.671875 7.015625 -8.203125 C 7.515625 -7.742188 7.765625 -7 7.765625 -5.96875 L 7.765625 0 Z M 3.796875 -0.9375 C 4.617188 -0.9375 5.265625 -1.160156 5.734375 -1.609375 C 6.210938 -2.066406 6.453125 -2.703125 6.453125 -3.515625 L 6.453125 -4.3125 L 5.125 -4.25 C 4.0625 -4.207031 3.296875 -4.039062 2.828125 -3.75 C 2.367188 -3.46875 2.140625 -3.019531 2.140625 -2.40625 C 2.140625 -1.925781 2.285156 -1.5625 2.578125 -1.3125 C 2.867188 -1.0625 3.273438 -0.9375 3.796875 -0.9375 Z M 3.796875 -0.9375 "/></g></g><g transform="translate(66.996498, 25.805456)"><g><path d="M 5.484375 0.15625 C 4.910156 0.15625 4.390625 0.0507812 3.921875 -0.15625 C 3.453125 -0.363281 3.054688 -0.6875 2.734375 -1.125 L 2.640625 -1.125 C 2.703125 -0.613281 2.734375 -0.128906 2.734375 0.328125 L 2.734375 3.9375 L 1.40625 3.9375 L 1.40625 -8.75 L 2.484375 -8.75 L 2.671875 -7.5625 L 2.734375 -7.5625 C 3.078125 -8.039062 3.472656 -8.382812 3.921875 -8.59375 C 4.367188 -8.8125 4.890625 -8.921875 5.484375 -8.921875 C 6.640625 -8.921875 7.53125 -8.519531 8.15625 -7.71875 C 8.789062 -6.925781 9.109375 -5.816406 9.109375 -4.390625 C 9.109375 -2.953125 8.785156 -1.832031 8.140625 -1.03125 C 7.503906 -0.238281 6.617188 0.15625 5.484375 0.15625 Z M 5.28125 -7.78125 C 4.394531 -7.78125 3.75 -7.53125 3.34375 -7.03125 C 2.945312 -6.539062 2.742188 -5.757812 2.734375 -4.6875 L 2.734375 -4.390625 C 2.734375 -3.160156 2.9375 -2.28125 3.34375 -1.75 C 3.757812 -1.21875 4.414062 -0.953125 5.3125 -0.953125 C 6.070312 -0.953125 6.664062 -1.253906 7.09375 -1.859375 C 7.519531 -2.472656 7.734375 -3.320312 7.734375 -4.40625 C 7.734375 -5.488281 7.519531 -6.320312 7.09375 -6.90625 C 6.664062 -7.488281 6.0625 -7.78125 5.28125 -7.78125 Z M 5.28125 -7.78125 "/></g></g><g transform="translate(77.018887, 25.805456)"><g><path d="M 7.390625 0 L 7.390625 -5.65625 C 7.390625 -6.375 7.226562 -6.90625 6.90625 -7.25 C 6.582031 -7.601562 6.078125 -7.78125 5.390625 -7.78125 C 4.460938 -7.78125 3.785156 -7.53125 3.359375 -7.03125 C 2.941406 -6.53125 2.734375 -5.710938 2.734375 -4.578125 L 2.734375 0 L 1.40625 0 L 1.40625 -12.421875 L 2.734375 -12.421875 L 2.734375 -8.671875 C 2.734375 -8.210938 2.710938 -7.835938 2.671875 -7.546875 L 2.75 -7.546875 C 3.007812 -7.960938 3.378906 -8.289062 3.859375 -8.53125 C 4.335938 -8.78125 4.890625 -8.90625 5.515625 -8.90625 C 6.585938 -8.90625 7.390625 -8.648438 7.921875 -8.140625 C 8.453125 -7.628906 8.71875 -6.820312 8.71875 -5.71875 L 8.71875 0 Z M 7.390625 0 "/></g></g><g transform="translate(87.057249, 25.805456)"><g><path d="M 11.75 -5.859375 C 11.75 -4.359375 11.445312 -3.113281 10.84375 -2.125 C 10.238281 -1.132812 9.390625 -0.460938 8.296875 -0.109375 L 11.078125 2.78125 L 9.09375 2.78125 L 6.828125 0.140625 L 6.375 0.15625 C 4.65625 0.15625 3.328125 -0.367188 2.390625 -1.421875 C 1.460938 -2.472656 1 -3.957031 1 -5.875 C 1 -7.769531 1.46875 -9.238281 2.40625 -10.28125 C 3.34375 -11.332031 4.671875 -11.859375 6.390625 -11.859375 C 8.078125 -11.859375 9.390625 -11.328125 10.328125 -10.265625 C 11.273438 -9.203125 11.75 -7.734375 11.75 -5.859375 Z M 2.4375 -5.859375 C 2.4375 -4.273438 2.769531 -3.070312 3.4375 -2.25 C 4.113281 -1.4375 5.09375 -1.03125 6.375 -1.03125 C 7.675781 -1.03125 8.65625 -1.4375 9.3125 -2.25 C 9.96875 -3.0625 10.296875 -4.265625 10.296875 -5.859375 C 10.296875 -7.429688 9.96875 -8.617188 9.3125 -9.421875 C 8.65625 -10.234375 7.679688 -10.640625 6.390625 -10.640625 C 5.097656 -10.640625 4.113281 -10.234375 3.4375 -9.421875 C 2.769531 -8.609375 2.4375 -7.421875 2.4375 -5.859375 Z M 2.4375 -5.859375 "/></g></g><g transform="translate(99.794867, 25.805456)"><g><path d="M 1.609375 0 L 1.609375 -11.671875 L 2.96875 -11.671875 L 2.96875 -1.234375 L 8.109375 -1.234375 L 8.109375 0 Z M 1.609375 0 "/></g></g></g></svg>