<svg xmlns="http://www.w3.org/2000/svg" xmlns:xlink="http://www.w3.org/1999/xlink" width="1920" zoomAndPan="magnify" viewBox="0 0 1440 149.999998" height="200" preserveAspectRatio="xMidYMid meet" version="1.0"><defs><g/><clipPath id="id1"><path d="M 457.195312 67 L 513 67 L 513 120 L 457.195312 120 Z M 457.195312 67 " clip-rule="nonzero"/></clipPath></defs><rect x="-144" width="1728" fill="#ffffff" y="-15" height="179.999997" fill-opacity="1"/><rect x="-144" width="1728" fill="#ffffff" y="-15" height="179.999997" fill-opacity="1"/><rect x="-144" width="1728" fill="#242424" y="-15" height="179.999997" fill-opacity="1"/><path fill="#00b37e" d="M 551.816406 30.609375 L 528.660156 112.550781 C 528.542969 112.925781 528.070312 113.035156 527.796875 112.777344 L 512.292969 98.082031 L 523.910156 57.019531 C 524.027344 56.644531 523.675781 56.3125 523.28125 56.421875 L 479.953125 67.433594 L 464.527344 52.816406 C 464.253906 52.554688 464.371094 52.109375 464.761719 51.996094 L 551.1875 30.015625 C 551.582031 29.9375 551.933594 30.273438 551.816406 30.609375 Z M 551.816406 30.609375 " fill-opacity="0.498" fill-rule="nonzero"/><g clip-path="url(#id1)"><path fill="#00b37e" d="M 512.292969 98.082031 L 506.328125 119.285156 C 506.210938 119.65625 505.738281 119.769531 505.464844 119.507812 L 457.34375 73.941406 C 457.070312 73.679688 457.1875 73.234375 457.582031 73.125 L 479.953125 67.433594 Z M 512.292969 98.082031 " fill-opacity="0.498" fill-rule="nonzero"/></g><path fill="#00b37e" d="M 523.910156 57.015625 L 512.292969 98.082031 L 479.949219 67.433594 L 523.28125 56.421875 C 523.671875 56.3125 524.027344 56.644531 523.910156 57.015625 Z M 523.910156 57.015625 " fill-opacity="1" fill-rule="nonzero"/><g fill="#ffffff" fill-opacity="1"><g transform="translate(578.317898, 100.52703)"><g><path d="M 5.609375 0 L 5.609375 -51.96875 L 19.734375 -51.96875 L 19.734375 0 Z M 5.609375 0 "/></g></g></g><g fill="#ffffff" fill-opacity="1"><g transform="translate(603.661083, 100.52703)"><g><path d="M 26.484375 -30.421875 L 48.90625 -30.421875 L 48.90625 -2.421875 C 42.820312 -0.335938 36.128906 0.703125 28.828125 0.703125 C 20.816406 0.703125 14.625 -1.613281 10.25 -6.25 C 5.882812 -10.894531 3.703125 -17.519531 3.703125 -26.125 C 3.703125 -34.507812 6.09375 -41.035156 10.875 -45.703125 C 15.664062 -50.378906 22.375 -52.71875 31 -52.71875 C 34.269531 -52.71875 37.351562 -52.40625 40.25 -51.78125 C 43.15625 -51.164062 45.6875 -50.382812 47.84375 -49.4375 L 43.40625 -38.421875 C 39.65625 -40.273438 35.539062 -41.203125 31.0625 -41.203125 C 26.96875 -41.203125 23.800781 -39.867188 21.5625 -37.203125 C 19.320312 -34.535156 18.203125 -30.722656 18.203125 -25.765625 C 18.203125 -20.910156 19.210938 -17.207031 21.234375 -14.65625 C 23.265625 -12.113281 26.1875 -10.84375 30 -10.84375 C 32.082031 -10.84375 34.003906 -11.046875 35.765625 -11.453125 L 35.765625 -19.578125 L 26.484375 -19.578125 Z M 26.484375 -30.421875 "/></g></g></g><g fill="#ffffff" fill-opacity="1"><g transform="translate(657.54643, 100.52703)"><g><path d="M 55.09375 0 L 36.6875 0 L 17.703125 -36.609375 L 17.375 -36.609375 C 17.832031 -30.847656 18.0625 -26.453125 18.0625 -23.421875 L 18.0625 0 L 5.609375 0 L 5.609375 -51.96875 L 23.953125 -51.96875 L 42.875 -15.859375 L 43.078125 -15.859375 C 42.742188 -21.085938 42.578125 -25.289062 42.578125 -28.46875 L 42.578125 -51.96875 L 55.09375 -51.96875 Z M 55.09375 0 "/></g></g></g><g fill="#ffffff" fill-opacity="1"><g transform="translate(718.256306, 100.52703)"><g><path d="M 5.609375 0 L 5.609375 -51.96875 L 19.734375 -51.96875 L 19.734375 0 Z M 5.609375 0 "/></g></g></g><g fill="#ffffff" fill-opacity="1"><g transform="translate(743.599491, 100.52703)"><g><path d="M 28.546875 0 L 14.5 0 L 14.5 -40.484375 L 1.8125 -40.484375 L 1.8125 -51.96875 L 41.203125 -51.96875 L 41.203125 -40.484375 L 28.546875 -40.484375 Z M 28.546875 0 "/></g></g></g><g fill="#ffffff" fill-opacity="1"><g transform="translate(786.608243, 100.52703)"><g><path d="M 36.46875 0 L 5.609375 0 L 5.609375 -51.96875 L 36.46875 -51.96875 L 36.46875 -40.703125 L 19.65625 -40.703125 L 19.65625 -32.53125 L 35.21875 -32.53125 L 35.21875 -21.25 L 19.65625 -21.25 L 19.65625 -11.453125 L 36.46875 -11.453125 Z M 36.46875 0 "/></g></g></g><g fill="#ffffff" fill-opacity="1"><g transform="translate(826.560176, 100.52703)"><g/></g></g><g fill="#ffffff" fill-opacity="1"><g transform="translate(845.469809, 100.52703)"><g><path d="M 19.4375 0 L 5.609375 0 L 5.609375 -51.96875 L 36.328125 -51.96875 L 36.328125 -40.703125 L 19.4375 -40.703125 L 19.4375 -30.78125 L 35.015625 -30.78125 L 35.015625 -19.515625 L 19.4375 -19.515625 Z M 19.4375 0 "/></g></g></g><g fill="#ffffff" fill-opacity="1"><g transform="translate(884.710853, 100.52703)"><g><path d="M 36.46875 0 L 5.609375 0 L 5.609375 -51.96875 L 36.46875 -51.96875 L 36.46875 -40.703125 L 19.65625 -40.703125 L 19.65625 -32.53125 L 35.21875 -32.53125 L 35.21875 -21.25 L 19.65625 -21.25 L 19.65625 -11.453125 L 36.46875 -11.453125 Z M 36.46875 0 "/></g></g></g><g fill="#ffffff" fill-opacity="1"><g transform="translate(924.662786, 100.52703)"><g><path d="M 36.46875 0 L 5.609375 0 L 5.609375 -51.96875 L 36.46875 -51.96875 L 36.46875 -40.703125 L 19.65625 -40.703125 L 19.65625 -32.53125 L 35.21875 -32.53125 L 35.21875 -21.25 L 19.65625 -21.25 L 19.65625 -11.453125 L 36.46875 -11.453125 Z M 36.46875 0 "/></g></g></g><g fill="#ffffff" fill-opacity="1"><g transform="translate(964.614739, 100.52703)"><g><path d="M 49.734375 -27.078125 C 49.734375 -18.410156 47.34375 -11.726562 42.5625 -7.03125 C 37.789062 -2.34375 31.078125 0 22.421875 0 L 5.609375 0 L 5.609375 -51.96875 L 23.609375 -51.96875 C 31.941406 -51.96875 38.378906 -49.832031 42.921875 -45.5625 C 47.460938 -41.300781 49.734375 -35.140625 49.734375 -27.078125 Z M 35.15625 -26.59375 C 35.15625 -31.351562 34.210938 -34.878906 32.328125 -37.171875 C 30.441406 -39.472656 27.582031 -40.625 23.75 -40.625 L 19.65625 -40.625 L 19.65625 -11.515625 L 22.78125 -11.515625 C 27.050781 -11.515625 30.179688 -12.753906 32.171875 -15.234375 C 34.160156 -17.710938 35.15625 -21.5 35.15625 -26.59375 Z M 35.15625 -26.59375 "/></g></g></g></svg>